<svg width="566" height="712" viewBox="0 0 566 712" fill="none" xmlns="http://www.w3.org/2000/svg">
<g clip-path="url(#clip0_1696_99922)">
<path d="M142.5 82.7759C142.5 68.8164 153.816 57.5 167.776 57.5H579.772V790.5H142.5V82.7759Z" fill="url(#paint0_linear_1696_99922)"/>
<path d="M182.844 141.964L180.028 142.956C179.772 141.324 178.396 139.084 175.228 139.084C172.668 139.084 170.844 140.748 170.844 142.86C170.844 144.492 171.836 145.74 173.756 146.156L177.148 146.892C180.924 147.724 183.036 150.092 183.036 153.26C183.036 156.78 180.028 159.98 175.196 159.98C169.724 159.98 167.132 156.46 166.716 153.228L169.724 152.268C169.948 154.796 171.74 157.132 175.164 157.132C178.3 157.132 179.836 155.5 179.836 153.516C179.836 151.884 178.716 150.476 176.444 149.996L173.212 149.292C169.98 148.588 167.676 146.476 167.676 143.084C167.676 139.532 170.972 136.332 175.164 136.332C180.284 136.332 182.332 139.5 182.844 141.964ZM190.108 139.244V144.108H193.436V146.828H190.108V154.828C190.108 156.236 190.684 156.94 192.252 156.94C192.636 156.94 193.18 156.876 193.436 156.812V159.372C193.18 159.468 192.412 159.66 191.388 159.66C188.764 159.66 187.1 158.06 187.1 155.276V146.828H184.156V144.108H184.988C186.652 144.108 187.356 143.084 187.356 141.74V139.244H190.108ZM195.851 155.372C195.851 152.62 197.867 151.084 200.523 150.7L204.683 150.092C205.611 149.964 205.867 149.484 205.867 148.94C205.867 147.436 204.875 146.188 202.539 146.188C200.427 146.188 199.243 147.5 199.051 149.292L196.171 148.62C196.491 145.676 199.147 143.628 202.475 143.628C207.083 143.628 208.875 146.252 208.875 149.26V156.972C208.875 158.316 209.003 159.116 209.067 159.5H206.123C206.059 159.116 205.963 158.54 205.963 157.42C205.291 158.508 203.755 159.98 201.003 159.98C197.867 159.98 195.851 157.804 195.851 155.372ZM201.419 157.452C203.883 157.452 205.867 156.268 205.867 152.908V152.204L201.163 152.908C199.883 153.1 198.923 153.836 198.923 155.212C198.923 156.364 199.883 157.452 201.419 157.452ZM226.713 144.108L220.153 150.604L226.841 159.5H223.065L218.041 152.716L215.897 154.86V159.5H212.921V136.332H215.897V150.924L222.553 144.108H226.713ZM232.07 159.5H229.094V144.108H232.07V159.5ZM228.422 138.284C228.422 137.068 229.382 136.108 230.566 136.108C231.782 136.108 232.742 137.068 232.742 138.284C232.742 139.468 231.782 140.428 230.566 140.428C229.382 140.428 228.422 139.468 228.422 138.284ZM239.556 150.604V159.5H236.548V144.108H239.492V146.316C240.612 144.396 242.436 143.66 244.228 143.66C247.908 143.66 249.732 146.316 249.732 149.74V159.5H246.724V150.252C246.724 148.108 245.828 146.38 243.14 146.38C240.772 146.38 239.556 148.268 239.556 150.604ZM252.756 160.332L255.668 159.66C255.892 161.804 257.524 163.436 259.86 163.436C263.092 163.436 264.564 161.772 264.564 158.444V156.236C263.828 157.644 262.164 158.764 259.86 158.764C255.764 158.764 252.788 155.66 252.788 151.308C252.788 147.148 255.636 143.82 259.86 143.82C262.228 143.82 263.828 144.716 264.596 146.252V144.108H267.572V158.348C267.572 162.252 265.652 166.06 259.86 166.06C256.02 166.06 253.14 163.628 252.756 160.332ZM260.308 156.236C262.9 156.236 264.692 154.284 264.692 151.308C264.692 148.332 262.9 146.38 260.308 146.38C257.652 146.38 255.86 148.332 255.86 151.308C255.86 154.316 257.588 156.236 260.308 156.236ZM293.208 159.5H279.416V136.812H293.208V139.724H282.552V146.7H292.216V149.644H282.552V156.588H293.208V159.5ZM299.589 150.604V159.5H296.581V144.108H299.525V146.316C300.645 144.396 302.469 143.66 304.261 143.66C307.941 143.66 309.765 146.316 309.765 149.74V159.5H306.757V150.252C306.757 148.108 305.861 146.38 303.173 146.38C300.805 146.38 299.589 148.268 299.589 150.604ZM312.79 160.332L315.702 159.66C315.926 161.804 317.558 163.436 319.894 163.436C323.126 163.436 324.598 161.772 324.598 158.444V156.236C323.862 157.644 322.198 158.764 319.894 158.764C315.798 158.764 312.822 155.66 312.822 151.308C312.822 147.148 315.67 143.82 319.894 143.82C322.262 143.82 323.862 144.716 324.63 146.252V144.108H327.606V158.348C327.606 162.252 325.686 166.06 319.894 166.06C316.054 166.06 313.174 163.628 312.79 160.332ZM320.342 156.236C322.934 156.236 324.726 154.284 324.726 151.308C324.726 148.332 322.934 146.38 320.342 146.38C317.686 146.38 315.894 148.332 315.894 151.308C315.894 154.316 317.622 156.236 320.342 156.236ZM334.746 159.5H331.77V144.108H334.746V159.5ZM331.098 138.284C331.098 137.068 332.058 136.108 333.242 136.108C334.458 136.108 335.418 137.068 335.418 138.284C335.418 139.468 334.458 140.428 333.242 140.428C332.058 140.428 331.098 139.468 331.098 138.284ZM342.232 150.604V159.5H339.224V144.108H342.168V146.316C343.288 144.396 345.112 143.66 346.904 143.66C350.584 143.66 352.408 146.316 352.408 149.74V159.5H349.4V150.252C349.4 148.108 348.504 146.38 345.816 146.38C343.448 146.38 342.232 148.268 342.232 150.604ZM358.504 150.22H366.92C366.856 148.012 365.416 146.284 362.696 146.284C360.168 146.284 358.632 148.236 358.504 150.22ZM367.368 154.22L369.96 155.116C369.096 157.836 366.632 159.98 363.048 159.98C358.92 159.98 355.304 156.972 355.304 151.756C355.304 146.924 358.792 143.628 362.664 143.628C367.4 143.628 370.056 146.892 370.056 151.692C370.056 152.076 370.024 152.46 369.992 152.652H358.408C358.472 155.404 360.456 157.324 363.048 157.324C365.544 157.324 366.792 155.948 367.368 154.22Z" fill="white"/>
<path d="M484.419 205.5V205.26L487.827 201.672C488.607 200.844 489.063 200.064 489.063 199.188C489.063 198.228 488.499 197.652 487.527 197.652C486.531 197.652 485.883 198.216 485.715 199.56H484.743C484.875 197.88 485.895 196.812 487.527 196.812C489.111 196.812 490.119 197.748 490.119 199.224C490.119 200.28 489.447 201.312 488.391 202.344L486.027 204.648H490.167V205.5H484.419ZM491.182 207.276L494.674 196.188H495.586L492.094 207.276H491.182ZM499.406 205.608C497.558 205.608 496.67 204.588 496.55 203.184H497.546C497.714 204.12 498.086 204.768 499.394 204.768C500.558 204.768 501.278 203.988 501.278 202.692C501.278 201.48 500.57 200.688 499.478 200.688C498.482 200.688 497.906 201 497.45 201.516H497.066V196.92H501.89V197.82H497.93V200.436C498.278 200.112 498.866 199.848 499.682 199.848C501.218 199.848 502.346 200.94 502.346 202.692C502.346 204.504 501.038 205.608 499.406 205.608ZM510.173 205.608C507.881 205.608 507.053 204.348 506.897 202.884H507.905C508.037 203.904 508.445 204.768 510.173 204.768C511.277 204.768 512.129 204.12 512.129 203.148C512.129 202.176 511.685 201.768 510.053 201.504C508.253 201.228 507.185 200.664 507.185 199.14C507.185 197.82 508.325 196.812 509.945 196.812C511.661 196.812 512.729 197.652 512.897 199.176H511.961C511.757 198.096 511.133 197.652 509.945 197.652C508.769 197.652 508.157 198.24 508.157 199.044C508.157 199.884 508.469 200.316 510.221 200.58C512.129 200.88 513.137 201.456 513.137 203.076C513.137 204.516 511.877 205.608 510.173 205.608ZM516.384 205.5V197.772H513.888V196.92H519.924V197.772H517.428V205.5H516.384ZM521.347 205.5V196.92H526.351V197.772H522.391V200.688H525.583V201.54H522.391V204.648H526.567V205.5H521.347ZM528.143 205.5V196.92H530.579C532.223 196.92 533.579 197.64 533.579 199.428V199.476C533.579 201.3 532.211 202.008 530.579 202.008H529.187V205.5H528.143ZM529.187 201.18H530.651C531.875 201.18 532.535 200.58 532.535 199.476V199.428C532.535 198.216 531.815 197.76 530.651 197.76H529.187V201.18ZM537.829 205.608C535.537 205.608 534.709 204.348 534.553 202.884H535.561C535.693 203.904 536.101 204.768 537.829 204.768C538.933 204.768 539.785 204.12 539.785 203.148C539.785 202.176 539.341 201.768 537.709 201.504C535.909 201.228 534.841 200.664 534.841 199.14C534.841 197.82 535.981 196.812 537.601 196.812C539.317 196.812 540.385 197.652 540.553 199.176H539.617C539.413 198.096 538.789 197.652 537.601 197.652C536.425 197.652 535.813 198.24 535.813 199.044C535.813 199.884 536.125 200.316 537.877 200.58C539.785 200.88 540.793 201.456 540.793 203.076C540.793 204.516 539.533 205.608 537.829 205.608Z" fill="white" style="mix-blend-mode:overlay"/>
<path d="M484.419 205.5V205.26L487.827 201.672C488.607 200.844 489.063 200.064 489.063 199.188C489.063 198.228 488.499 197.652 487.527 197.652C486.531 197.652 485.883 198.216 485.715 199.56H484.743C484.875 197.88 485.895 196.812 487.527 196.812C489.111 196.812 490.119 197.748 490.119 199.224C490.119 200.28 489.447 201.312 488.391 202.344L486.027 204.648H490.167V205.5H484.419ZM491.182 207.276L494.674 196.188H495.586L492.094 207.276H491.182ZM499.406 205.608C497.558 205.608 496.67 204.588 496.55 203.184H497.546C497.714 204.12 498.086 204.768 499.394 204.768C500.558 204.768 501.278 203.988 501.278 202.692C501.278 201.48 500.57 200.688 499.478 200.688C498.482 200.688 497.906 201 497.45 201.516H497.066V196.92H501.89V197.82H497.93V200.436C498.278 200.112 498.866 199.848 499.682 199.848C501.218 199.848 502.346 200.94 502.346 202.692C502.346 204.504 501.038 205.608 499.406 205.608ZM510.173 205.608C507.881 205.608 507.053 204.348 506.897 202.884H507.905C508.037 203.904 508.445 204.768 510.173 204.768C511.277 204.768 512.129 204.12 512.129 203.148C512.129 202.176 511.685 201.768 510.053 201.504C508.253 201.228 507.185 200.664 507.185 199.14C507.185 197.82 508.325 196.812 509.945 196.812C511.661 196.812 512.729 197.652 512.897 199.176H511.961C511.757 198.096 511.133 197.652 509.945 197.652C508.769 197.652 508.157 198.24 508.157 199.044C508.157 199.884 508.469 200.316 510.221 200.58C512.129 200.88 513.137 201.456 513.137 203.076C513.137 204.516 511.877 205.608 510.173 205.608ZM516.384 205.5V197.772H513.888V196.92H519.924V197.772H517.428V205.5H516.384ZM521.347 205.5V196.92H526.351V197.772H522.391V200.688H525.583V201.54H522.391V204.648H526.567V205.5H521.347ZM528.143 205.5V196.92H530.579C532.223 196.92 533.579 197.64 533.579 199.428V199.476C533.579 201.3 532.211 202.008 530.579 202.008H529.187V205.5H528.143ZM529.187 201.18H530.651C531.875 201.18 532.535 200.58 532.535 199.476V199.428C532.535 198.216 531.815 197.76 530.651 197.76H529.187V201.18ZM537.829 205.608C535.537 205.608 534.709 204.348 534.553 202.884H535.561C535.693 203.904 536.101 204.768 537.829 204.768C538.933 204.768 539.785 204.12 539.785 203.148C539.785 202.176 539.341 201.768 537.709 201.504C535.909 201.228 534.841 200.664 534.841 199.14C534.841 197.82 535.981 196.812 537.601 196.812C539.317 196.812 540.385 197.652 540.553 199.176H539.617C539.413 198.096 538.789 197.652 537.601 197.652C536.425 197.652 535.813 198.24 535.813 199.044C535.813 199.884 536.125 200.316 537.877 200.58C539.785 200.88 540.793 201.456 540.793 203.076C540.793 204.516 539.533 205.608 537.829 205.608Z" fill="white" fill-opacity="0.4" style="mix-blend-mode:plus-lighter"/>
<rect x="165.5" y="219.5" width="376" height="2" rx="1" fill="white" fill-opacity="0.7" style="mix-blend-mode:overlay"/>
<rect x="165.5" y="219.5" width="150" height="2" rx="1" fill="white"/>
<path d="M169.994 205.626C167.32 205.626 166.354 204.156 166.172 202.448H167.348C167.502 203.638 167.978 204.646 169.994 204.646C171.282 204.646 172.276 203.89 172.276 202.756C172.276 201.622 171.758 201.146 169.854 200.838C167.754 200.516 166.508 199.858 166.508 198.08C166.508 196.54 167.838 195.364 169.728 195.364C171.73 195.364 172.976 196.344 173.172 198.122H172.08C171.842 196.862 171.114 196.344 169.728 196.344C168.356 196.344 167.642 197.03 167.642 197.968C167.642 198.948 168.006 199.452 170.05 199.76C172.276 200.11 173.452 200.782 173.452 202.672C173.452 204.352 171.982 205.626 169.994 205.626ZM178.449 205.626C176.377 205.626 174.907 204.17 174.907 201.916V201.804C174.907 199.592 176.321 198.052 178.337 198.052C180.031 198.052 181.627 199.074 181.627 201.692V202.07H176.111C176.167 203.736 176.965 204.66 178.463 204.66C179.597 204.66 180.255 204.24 180.409 203.386H181.571C181.319 204.856 180.101 205.626 178.449 205.626ZM176.153 201.132H180.437C180.325 199.62 179.541 199.018 178.337 199.018C177.147 199.018 176.349 199.83 176.153 201.132ZM183.438 205.5V194.678H184.614V205.5H183.438ZM189.988 205.626C187.916 205.626 186.446 204.17 186.446 201.916V201.804C186.446 199.592 187.86 198.052 189.876 198.052C191.57 198.052 193.166 199.074 193.166 201.692V202.07H187.65C187.706 203.736 188.504 204.66 190.002 204.66C191.136 204.66 191.794 204.24 191.948 203.386H193.11C192.858 204.856 191.64 205.626 189.988 205.626ZM187.692 201.132H191.976C191.864 199.62 191.08 199.018 189.876 199.018C188.686 199.018 187.888 199.83 187.692 201.132ZM197.987 205.626C195.943 205.626 194.403 204.184 194.403 201.916V201.804C194.403 199.564 195.999 198.052 197.959 198.052C199.485 198.052 200.913 198.752 201.137 200.614H199.989C199.807 199.452 198.967 199.018 197.959 199.018C196.629 199.018 195.607 200.082 195.607 201.804V201.916C195.607 203.708 196.587 204.66 198.001 204.66C199.037 204.66 199.975 204.058 200.101 202.868H201.179C201.025 204.45 199.751 205.626 197.987 205.626ZM205.16 205.598C203.83 205.598 203.186 204.814 203.186 203.666V199.158H202.136V198.178H203.186V196.512H204.348V198.178H206.056V199.158H204.348V203.554C204.348 204.268 204.67 204.618 205.258 204.618C205.622 204.618 205.902 204.562 206.154 204.464V205.444C205.916 205.528 205.636 205.598 205.16 205.598ZM211.615 205.5V198.178H212.777V199.494C213.239 198.668 213.869 198.094 215.185 198.052V199.144C213.715 199.214 212.777 199.676 212.777 201.482V205.5H211.615ZM219.67 205.626C217.598 205.626 216.128 204.17 216.128 201.916V201.804C216.128 199.592 217.542 198.052 219.558 198.052C221.252 198.052 222.848 199.074 222.848 201.692V202.07H217.332C217.388 203.736 218.186 204.66 219.684 204.66C220.818 204.66 221.476 204.24 221.63 203.386H222.792C222.54 204.856 221.322 205.626 219.67 205.626ZM217.374 201.132H221.658C221.546 199.62 220.762 199.018 219.558 199.018C218.368 199.018 217.57 199.83 217.374 201.132ZM226.033 205.5L223.779 198.178H225.039L226.747 204.072L228.525 198.178H229.533L231.199 204.072L232.921 198.178H234.111L231.829 205.5H230.541L229.015 200.012L227.307 205.5H226.033ZM237.375 205.626C236.017 205.626 234.939 204.968 234.939 203.47C234.939 201.776 236.731 201.202 238.607 201.202H239.657V200.67C239.657 199.508 239.209 199.018 238.089 199.018C237.081 199.018 236.521 199.438 236.409 200.334H235.247C235.401 198.668 236.731 198.052 238.145 198.052C239.545 198.052 240.819 198.626 240.819 200.67V205.5H239.657V204.576C239.111 205.262 238.453 205.626 237.375 205.626ZM237.487 204.702C238.719 204.702 239.657 204.072 239.657 202.938V202.028H238.649C237.179 202.028 236.101 202.392 236.101 203.47C236.101 204.226 236.465 204.702 237.487 204.702ZM243.102 205.5V198.178H244.264V199.494C244.726 198.668 245.356 198.094 246.672 198.052V199.144C245.202 199.214 244.264 199.676 244.264 201.482V205.5H243.102ZM250.918 205.626C249 205.626 247.614 204.268 247.614 201.986V201.874C247.614 199.634 249.014 198.052 251.03 198.052C252.248 198.052 253.004 198.64 253.424 199.354V194.678H254.586V205.5H253.424V204.24C253.004 204.954 251.982 205.626 250.918 205.626ZM251.044 204.66C252.402 204.66 253.466 203.764 253.466 201.888V201.776C253.466 199.9 252.57 199.018 251.142 199.018C249.686 199.018 248.818 200.04 248.818 201.818V201.93C248.818 203.778 249.812 204.66 251.044 204.66Z" fill="white"/>
<path d="M172.646 264.77C169.352 264.77 166.31 262.376 166.31 258.11C166.31 253.844 169.478 251.468 172.646 251.468C175.562 251.468 177.614 253.052 178.262 255.518L176.624 256.094C176.138 254.168 174.734 253.088 172.646 253.088C170.324 253.088 168.11 254.78 168.11 258.11C168.11 261.44 170.324 263.15 172.646 263.15C174.824 263.15 176.192 261.836 176.714 260.09L178.28 260.666C177.596 263.06 175.58 264.77 172.646 264.77ZM181.956 259.406V264.5H180.264V251.468H181.956V256.85C182.586 255.932 183.594 255.59 184.584 255.59C186.654 255.59 187.68 257.084 187.68 259.01V264.5H185.988V259.298C185.988 258.092 185.484 257.12 183.972 257.12C182.676 257.12 181.992 258.128 181.956 259.406ZM194.08 263.258C195.52 263.258 196.78 262.178 196.78 260.162C196.78 258.164 195.52 257.084 194.08 257.084C192.64 257.084 191.38 258.164 191.38 260.162C191.38 262.178 192.64 263.258 194.08 263.258ZM194.08 255.572C196.672 255.572 198.508 257.534 198.508 260.162C198.508 262.808 196.672 264.77 194.08 264.77C191.488 264.77 189.652 262.808 189.652 260.162C189.652 257.534 191.488 255.572 194.08 255.572ZM204.38 263.258C205.82 263.258 207.08 262.178 207.08 260.162C207.08 258.164 205.82 257.084 204.38 257.084C202.94 257.084 201.68 258.164 201.68 260.162C201.68 262.178 202.94 263.258 204.38 263.258ZM204.38 255.572C206.972 255.572 208.808 257.534 208.808 260.162C208.808 262.808 206.972 264.77 204.38 264.77C201.788 264.77 199.952 262.808 199.952 260.162C199.952 257.534 201.788 255.572 204.38 255.572ZM210.163 262.25L211.693 261.71C211.801 262.61 212.485 263.33 213.709 263.33C214.663 263.33 215.185 262.79 215.185 262.178C215.185 261.638 214.789 261.224 214.069 261.062L212.593 260.738C211.243 260.45 210.433 259.532 210.433 258.308C210.433 256.832 211.819 255.572 213.511 255.572C215.887 255.572 216.625 257.12 216.805 257.894L215.311 258.452C215.239 258.002 214.879 257.012 213.511 257.012C212.647 257.012 212.071 257.57 212.071 258.164C212.071 258.686 212.395 259.064 213.061 259.208L214.465 259.514C216.031 259.856 216.859 260.81 216.859 262.088C216.859 263.312 215.833 264.77 213.691 264.77C211.315 264.77 210.307 263.24 210.163 262.25ZM220.122 259.28H224.856C224.82 258.038 224.01 257.066 222.48 257.066C221.058 257.066 220.194 258.164 220.122 259.28ZM225.108 261.53L226.566 262.034C226.08 263.564 224.694 264.77 222.678 264.77C220.356 264.77 218.322 263.078 218.322 260.144C218.322 257.426 220.284 255.572 222.462 255.572C225.126 255.572 226.62 257.408 226.62 260.108C226.62 260.324 226.602 260.54 226.584 260.648H220.068C220.104 262.196 221.22 263.276 222.678 263.276C224.082 263.276 224.784 262.502 225.108 261.53ZM235.44 268.118H233.586L235.746 263.546L232.02 255.842H233.964L236.664 261.818L239.256 255.842H241.074L235.44 268.118ZM246.058 263.258C247.498 263.258 248.758 262.178 248.758 260.162C248.758 258.164 247.498 257.084 246.058 257.084C244.618 257.084 243.358 258.164 243.358 260.162C243.358 262.178 244.618 263.258 246.058 263.258ZM246.058 255.572C248.65 255.572 250.486 257.534 250.486 260.162C250.486 262.808 248.65 264.77 246.058 264.77C243.466 264.77 241.63 262.808 241.63 260.162C241.63 257.534 243.466 255.572 246.058 255.572ZM258.269 263.456C257.801 264.356 256.721 264.77 255.713 264.77C253.697 264.77 252.473 263.258 252.473 261.296V255.842H254.165V261.044C254.165 262.232 254.705 263.276 256.127 263.276C257.495 263.276 258.179 262.376 258.179 261.062V255.842H259.871V262.898C259.871 263.582 259.925 264.194 259.961 264.5H258.341C258.305 264.302 258.269 263.816 258.269 263.456ZM267.564 255.752V257.552C267.312 257.516 267.06 257.498 266.826 257.498C265.404 257.498 264.45 258.254 264.45 260.162V264.5H262.758V255.842H264.414V257.354C265.044 256.022 266.124 255.698 267.006 255.698C267.24 255.698 267.474 255.734 267.564 255.752ZM278.674 255.752V257.552C278.422 257.516 278.17 257.498 277.936 257.498C276.514 257.498 275.56 258.254 275.56 260.162V264.5H273.868V255.842H275.524V257.354C276.154 256.022 277.234 255.698 278.116 255.698C278.35 255.698 278.584 255.734 278.674 255.752ZM281.487 259.28H286.221C286.185 258.038 285.375 257.066 283.845 257.066C282.423 257.066 281.559 258.164 281.487 259.28ZM286.473 261.53L287.931 262.034C287.445 263.564 286.059 264.77 284.043 264.77C281.721 264.77 279.687 263.078 279.687 260.144C279.687 257.426 281.649 255.572 283.827 255.572C286.491 255.572 287.985 257.408 287.985 260.108C287.985 260.324 287.967 260.54 287.949 260.648H281.433C281.469 262.196 282.585 263.276 284.043 263.276C285.447 263.276 286.149 262.502 286.473 261.53ZM294.935 255.842H296.681L298.931 262.358L300.839 255.842H302.621L299.813 264.5H298.067L295.763 257.912L293.513 264.5H291.731L288.887 255.842H290.741L292.685 262.358L294.935 255.842ZM303.703 262.178C303.703 260.63 304.837 259.766 306.331 259.55L308.671 259.208C309.193 259.136 309.337 258.866 309.337 258.56C309.337 257.714 308.779 257.012 307.465 257.012C306.277 257.012 305.611 257.75 305.503 258.758L303.883 258.38C304.063 256.724 305.557 255.572 307.429 255.572C310.021 255.572 311.029 257.048 311.029 258.74V263.078C311.029 263.834 311.101 264.284 311.137 264.5H309.481C309.445 264.284 309.391 263.96 309.391 263.33C309.013 263.942 308.149 264.77 306.601 264.77C304.837 264.77 303.703 263.546 303.703 262.178ZM306.835 263.348C308.221 263.348 309.337 262.682 309.337 260.792V260.396L306.691 260.792C305.971 260.9 305.431 261.314 305.431 262.088C305.431 262.736 305.971 263.348 306.835 263.348ZM318.471 255.752V257.552C318.219 257.516 317.967 257.498 317.733 257.498C316.311 257.498 315.357 258.254 315.357 260.162V264.5H313.665V255.842H315.321V257.354C315.951 256.022 317.031 255.698 317.913 255.698C318.147 255.698 318.381 255.734 318.471 255.752ZM321.194 260.144C321.194 261.926 322.112 263.24 323.732 263.24C325.28 263.24 326.234 261.89 326.234 260.108C326.234 258.326 325.298 257.102 323.75 257.102C322.202 257.102 321.194 258.362 321.194 260.144ZM326.252 263.33V263.186C325.838 264.014 324.92 264.734 323.57 264.734C321.032 264.734 319.466 262.718 319.466 260.144C319.466 257.696 321.122 255.608 323.57 255.608C325.1 255.608 325.928 256.364 326.216 257.066V251.468H327.89V262.898C327.89 263.726 327.962 264.356 327.98 264.5H326.342C326.306 264.302 326.252 263.852 326.252 263.33ZM337.536 253.106V255.842H339.408V257.372H337.536V261.872C337.536 262.664 337.86 263.06 338.742 263.06C338.958 263.06 339.264 263.024 339.408 262.988V264.428C339.264 264.482 338.832 264.59 338.256 264.59C336.78 264.59 335.844 263.69 335.844 262.124V257.372H334.188V255.842H334.656C335.592 255.842 335.988 255.266 335.988 254.51V253.106H337.536ZM345.287 263.258C346.727 263.258 347.987 262.178 347.987 260.162C347.987 258.164 346.727 257.084 345.287 257.084C343.847 257.084 342.587 258.164 342.587 260.162C342.587 262.178 343.847 263.258 345.287 263.258ZM345.287 255.572C347.879 255.572 349.715 257.534 349.715 260.162C349.715 262.808 347.879 264.77 345.287 264.77C342.695 264.77 340.859 262.808 340.859 260.162C340.859 257.534 342.695 255.572 345.287 255.572ZM359.637 255.842L355.947 259.496L359.709 264.5H357.585L354.759 260.684L353.553 261.89V264.5H351.879V251.468H353.553V259.676L357.297 255.842H359.637ZM361.977 259.28H366.711C366.675 258.038 365.865 257.066 364.335 257.066C362.913 257.066 362.049 258.164 361.977 259.28ZM366.963 261.53L368.421 262.034C367.935 263.564 366.549 264.77 364.533 264.77C362.211 264.77 360.177 263.078 360.177 260.144C360.177 257.426 362.139 255.572 364.317 255.572C366.981 255.572 368.475 257.408 368.475 260.108C368.475 260.324 368.457 260.54 368.439 260.648H361.923C361.959 262.196 363.075 263.276 364.533 263.276C365.937 263.276 366.639 262.502 366.963 261.53ZM372.327 259.496V264.5H370.635V255.842H372.291V257.084C372.921 256.004 373.947 255.59 374.955 255.59C377.025 255.59 378.051 257.084 378.051 259.01V264.5H376.359V259.298C376.359 258.092 375.855 257.12 374.343 257.12C373.011 257.12 372.327 258.182 372.327 259.496ZM390.341 262.288V257.78H391.265V262.288H390.341ZM390.803 257.136C390.616 257.136 390.476 257.089 390.383 256.996C390.289 256.903 390.243 256.767 390.243 256.59C390.243 256.403 390.289 256.268 390.383 256.184C390.476 256.091 390.616 256.044 390.803 256.044C390.952 256.044 391.078 256.091 391.181 256.184C391.293 256.268 391.349 256.403 391.349 256.59C391.349 256.777 391.293 256.917 391.181 257.01C391.078 257.094 390.952 257.136 390.803 257.136ZM390.803 265.27C390.009 265.27 389.263 265.121 388.563 264.822C387.863 264.523 387.247 264.113 386.715 263.59C386.192 263.058 385.781 262.442 385.483 261.742C385.184 261.042 385.035 260.295 385.035 259.502C385.035 258.699 385.184 257.953 385.483 257.262C385.781 256.562 386.192 255.951 386.715 255.428C387.247 254.896 387.863 254.481 388.563 254.182C389.263 253.883 390.009 253.734 390.803 253.734C391.605 253.734 392.352 253.883 393.043 254.182C393.743 254.481 394.354 254.896 394.877 255.428C395.409 255.951 395.824 256.562 396.123 257.262C396.421 257.953 396.571 258.699 396.571 259.502C396.571 260.295 396.421 261.042 396.123 261.742C395.824 262.442 395.409 263.058 394.877 263.59C394.354 264.113 393.743 264.523 393.043 264.822C392.352 265.121 391.605 265.27 390.803 265.27ZM390.803 264.486C391.493 264.486 392.137 264.36 392.735 264.108C393.341 263.847 393.873 263.487 394.331 263.03C394.788 262.573 395.143 262.045 395.395 261.448C395.656 260.841 395.787 260.193 395.787 259.502C395.787 258.811 395.656 258.167 395.395 257.57C395.143 256.963 394.788 256.431 394.331 255.974C393.873 255.517 393.341 255.162 392.735 254.91C392.137 254.649 391.493 254.518 390.803 254.518C390.112 254.518 389.463 254.649 388.857 254.91C388.259 255.162 387.732 255.517 387.275 255.974C386.817 256.431 386.458 256.963 386.197 257.57C385.945 258.167 385.819 258.811 385.819 259.502C385.819 260.193 385.945 260.841 386.197 261.448C386.458 262.045 386.817 262.573 387.275 263.03C387.732 263.487 388.259 263.847 388.857 264.108C389.463 264.36 390.112 264.486 390.803 264.486Z" fill="white"/>
<path d="M166.67 287.5V278.205H168.243L171.116 285.446L173.898 278.205H175.458V287.5H174.327V279.674L171.246 287.5H170.895L167.71 279.674V287.5H166.67ZM180.547 287.617C178.61 287.617 177.219 286.148 177.219 284.159V284.055C177.219 282.014 178.636 280.584 180.56 280.584C182.484 280.584 183.901 282.001 183.901 284.042V284.146C183.901 286.2 182.484 287.617 180.547 287.617ZM180.56 286.72C181.925 286.72 182.783 285.693 182.783 284.159V284.068C182.783 282.495 181.912 281.481 180.56 281.481C179.195 281.481 178.337 282.495 178.337 284.055V284.159C178.337 285.706 179.182 286.72 180.56 286.72ZM185.571 287.5V280.701H186.65V281.923C187.079 281.156 187.664 280.623 188.886 280.584V281.598C187.521 281.663 186.65 282.092 186.65 283.769V287.5H185.571ZM193.051 287.617C191.127 287.617 189.762 286.265 189.762 284.172V284.068C189.762 282.014 191.075 280.584 192.947 280.584C194.52 280.584 196.002 281.533 196.002 283.964V284.315H190.88C190.932 285.862 191.673 286.72 193.064 286.72C194.117 286.72 194.728 286.33 194.871 285.537H195.95C195.716 286.902 194.585 287.617 193.051 287.617ZM190.919 283.444H194.897C194.793 282.04 194.065 281.481 192.947 281.481C191.842 281.481 191.101 282.235 190.919 283.444ZM201.098 287.5V280.701H202.177V281.923C202.606 281.156 203.191 280.623 204.413 280.584V281.598C203.048 281.663 202.177 282.092 202.177 283.769V287.5H201.098ZM208.577 287.617C206.653 287.617 205.288 286.265 205.288 284.172V284.068C205.288 282.014 206.601 280.584 208.473 280.584C210.046 280.584 211.528 281.533 211.528 283.964V284.315H206.406C206.458 285.862 207.199 286.72 208.59 286.72C209.643 286.72 210.254 286.33 210.397 285.537H211.476C211.242 286.902 210.111 287.617 208.577 287.617ZM206.445 283.444H210.423C210.319 282.04 209.591 281.481 208.473 281.481C207.368 281.481 206.627 282.235 206.445 283.444ZM214.485 287.5L212.392 280.701H213.562L215.148 286.174L216.799 280.701H217.735L219.282 286.174L220.881 280.701H221.986L219.867 287.5H218.671L217.254 282.404L215.668 287.5H214.485ZM225.018 287.617C223.757 287.617 222.756 287.006 222.756 285.615C222.756 284.042 224.42 283.509 226.162 283.509H227.137V283.015C227.137 281.936 226.721 281.481 225.681 281.481C224.745 281.481 224.225 281.871 224.121 282.703H223.042C223.185 281.156 224.42 280.584 225.733 280.584C227.033 280.584 228.216 281.117 228.216 283.015V287.5H227.137V286.642C226.63 287.279 226.019 287.617 225.018 287.617ZM225.122 286.759C226.266 286.759 227.137 286.174 227.137 285.121V284.276H226.201C224.836 284.276 223.835 284.614 223.835 285.615C223.835 286.317 224.173 286.759 225.122 286.759ZM230.335 287.5V280.701H231.414V281.923C231.843 281.156 232.428 280.623 233.65 280.584V281.598C232.285 281.663 231.414 282.092 231.414 283.769V287.5H230.335ZM237.593 287.617C235.812 287.617 234.525 286.356 234.525 284.237V284.133C234.525 282.053 235.825 280.584 237.697 280.584C238.828 280.584 239.53 281.13 239.92 281.793V277.451H240.999V287.5H239.92V286.33C239.53 286.993 238.581 287.617 237.593 287.617ZM237.71 286.72C238.971 286.72 239.959 285.888 239.959 284.146V284.042C239.959 282.3 239.127 281.481 237.801 281.481C236.449 281.481 235.643 282.43 235.643 284.081V284.185C235.643 285.901 236.566 286.72 237.71 286.72ZM245.289 287.617C243.664 287.617 242.689 286.798 242.624 285.407H243.677C243.755 286.213 244.184 286.72 245.276 286.72C246.303 286.72 246.758 286.369 246.758 285.641C246.758 284.926 246.225 284.692 245.172 284.497C243.404 284.172 242.806 283.678 242.806 282.495C242.806 281.234 244.041 280.584 245.107 280.584C246.329 280.584 247.382 281.078 247.564 282.547H246.524C246.368 281.806 245.952 281.481 245.094 281.481C244.314 281.481 243.807 281.871 243.807 282.456C243.807 283.067 244.145 283.314 245.393 283.535C246.797 283.795 247.785 284.107 247.785 285.55C247.785 286.785 246.94 287.617 245.289 287.617ZM255.69 287.617C253.792 287.617 252.362 286.278 252.362 284.172V284.068C252.362 281.988 253.844 280.584 255.664 280.584C257.081 280.584 258.407 281.234 258.615 282.963H257.549C257.38 281.884 256.6 281.481 255.664 281.481C254.429 281.481 253.48 282.469 253.48 284.068V284.172C253.48 285.836 254.39 286.72 255.703 286.72C256.665 286.72 257.536 286.161 257.653 285.056H258.654C258.511 286.525 257.328 287.617 255.69 287.617ZM263.104 287.617C261.167 287.617 259.776 286.148 259.776 284.159V284.055C259.776 282.014 261.193 280.584 263.117 280.584C265.041 280.584 266.458 282.001 266.458 284.042V284.146C266.458 286.2 265.041 287.617 263.104 287.617ZM263.117 286.72C264.482 286.72 265.34 285.693 265.34 284.159V284.068C265.34 282.495 264.469 281.481 263.117 281.481C261.752 281.481 260.894 282.495 260.894 284.055V284.159C260.894 285.706 261.739 286.72 263.117 286.72ZM268.129 287.5V280.701H269.208V281.741C269.52 281.104 270.261 280.584 271.236 280.584C272.107 280.584 272.874 280.948 273.225 281.858C273.693 280.974 274.707 280.584 275.552 280.584C276.774 280.584 277.84 281.312 277.84 283.288V287.5H276.761V283.21C276.761 282.014 276.254 281.52 275.318 281.52C274.434 281.52 273.524 282.118 273.524 283.34V287.5H272.445V283.21C272.445 282.014 271.938 281.52 271.002 281.52C270.118 281.52 269.208 282.118 269.208 283.34V287.5H268.129ZM280.507 279.284C280.117 279.284 279.792 278.959 279.792 278.569C279.792 278.179 280.117 277.854 280.507 277.854C280.897 277.854 281.222 278.179 281.222 278.569C281.222 278.959 280.897 279.284 280.507 279.284ZM279.987 287.5V280.701H281.066V287.5H279.987ZM283.275 287.5V280.701H284.354V281.78C284.666 281.143 285.42 280.584 286.538 280.584C287.942 280.584 288.93 281.351 288.93 283.327V287.5H287.851V283.249C287.851 282.053 287.344 281.52 286.252 281.52C285.251 281.52 284.354 282.157 284.354 283.379V287.5H283.275ZM293.761 289.983C291.746 289.983 290.862 289.034 290.68 287.89H291.785C291.941 288.67 292.591 289.073 293.748 289.073C295.087 289.073 295.932 288.436 295.932 286.98V285.992C295.542 286.655 294.619 287.279 293.631 287.279C291.85 287.279 290.537 285.927 290.537 284.055V283.964C290.537 282.118 291.837 280.584 293.709 280.584C294.84 280.584 295.542 281.13 295.932 281.793V280.701H297.011V287.045C296.998 289.021 295.659 289.983 293.761 289.983ZM293.748 286.382C295.009 286.382 295.971 285.498 295.971 283.977V283.886C295.971 282.365 295.139 281.481 293.813 281.481C292.461 281.481 291.655 282.482 291.655 283.912V284.016C291.655 285.498 292.604 286.382 293.748 286.382ZM304.741 287.617C303.116 287.617 302.141 286.798 302.076 285.407H303.129C303.207 286.213 303.636 286.72 304.728 286.72C305.755 286.72 306.21 286.369 306.21 285.641C306.21 284.926 305.677 284.692 304.624 284.497C302.856 284.172 302.258 283.678 302.258 282.495C302.258 281.234 303.493 280.584 304.559 280.584C305.781 280.584 306.834 281.078 307.016 282.547H305.976C305.82 281.806 305.404 281.481 304.546 281.481C303.766 281.481 303.259 281.871 303.259 282.456C303.259 283.067 303.597 283.314 304.845 283.535C306.249 283.795 307.237 284.107 307.237 285.55C307.237 286.785 306.392 287.617 304.741 287.617ZM311.702 287.617C309.765 287.617 308.374 286.148 308.374 284.159V284.055C308.374 282.014 309.791 280.584 311.715 280.584C313.639 280.584 315.056 282.001 315.056 284.042V284.146C315.056 286.2 313.639 287.617 311.702 287.617ZM311.715 286.72C313.08 286.72 313.938 285.693 313.938 284.159V284.068C313.938 282.495 313.067 281.481 311.715 281.481C310.35 281.481 309.492 282.495 309.492 284.055V284.159C309.492 285.706 310.337 286.72 311.715 286.72ZM319.548 287.617C317.611 287.617 316.22 286.148 316.22 284.159V284.055C316.22 282.014 317.637 280.584 319.561 280.584C321.485 280.584 322.902 282.001 322.902 284.042V284.146C322.902 286.2 321.485 287.617 319.548 287.617ZM319.561 286.72C320.926 286.72 321.784 285.693 321.784 284.159V284.068C321.784 282.495 320.913 281.481 319.561 281.481C318.196 281.481 317.338 282.495 317.338 284.055V284.159C317.338 285.706 318.183 286.72 319.561 286.72ZM324.572 287.5V280.701H325.651V281.78C325.963 281.143 326.717 280.584 327.835 280.584C329.239 280.584 330.227 281.351 330.227 283.327V287.5H329.148V283.249C329.148 282.053 328.641 281.52 327.549 281.52C326.548 281.52 325.651 282.157 325.651 283.379V287.5H324.572Z" fill="white"/>
<rect x="165.5" y="322.5" width="376" height="132" rx="16" fill="white" fill-opacity="0.3" style="mix-blend-mode:overlay"/>
<rect x="165.5" y="322.5" width="376" height="132" rx="16" fill="#4331E9" fill-opacity="0.4" style="mix-blend-mode:plus-lighter"/>
<rect x="165.5" y="322.5" width="376" height="132" rx="16" fill="url(#paint1_radial_1696_99922)" fill-opacity="0.25" style="mix-blend-mode:overlay"/>
<circle cx="197.5" cy="354.5" r="12" fill="url(#paint2_radial_1696_99922)"/>
<path d="M193.103 357.499H191.494C191.626 360.007 193.727 362.186 197.455 362.186C201.166 362.186 203.531 360.154 203.531 357.532C203.531 352.55 195.994 352.828 195.994 349.944C195.994 349.141 196.601 348.19 198.013 348.19C199.59 348.19 201.445 349.42 201.577 350.993H203.17C203.005 348.453 200.526 346.683 197.373 346.683C194.105 346.683 191.642 348.584 191.642 351.272C191.642 356.401 199.179 355.729 199.179 358.892C199.179 359.876 198.572 360.695 197.044 360.695C195.14 360.695 193.218 359.368 193.103 357.499ZM194.45 350.321C194.45 354.221 201.922 353.451 201.922 357.614C201.922 358.86 201.101 359.958 200.115 360.236C200.46 359.908 200.723 359.187 200.723 358.499C200.723 354.648 193.235 355.172 193.235 351.222C193.235 349.895 194.089 348.83 195.156 348.502C194.746 348.993 194.45 349.633 194.45 350.321Z" fill="white"/>
<path d="M223.53 361.77C220.938 361.77 218.94 360.15 218.94 357.144V348.738H220.686V357.09C220.686 359.034 221.748 360.132 223.53 360.132C225.33 360.132 226.356 359.034 226.356 357.09V348.738H228.12V357.144C228.12 360.15 226.122 361.77 223.53 361.77ZM239.315 351.636L237.731 352.194C237.587 351.276 236.813 350.016 235.031 350.016C233.591 350.016 232.565 350.952 232.565 352.14C232.565 353.058 233.123 353.76 234.203 353.994L236.111 354.408C238.235 354.876 239.423 356.208 239.423 357.99C239.423 359.97 237.731 361.77 235.013 361.77C231.935 361.77 230.477 359.79 230.243 357.972L231.935 357.432C232.061 358.854 233.069 360.168 234.995 360.168C236.759 360.168 237.623 359.25 237.623 358.134C237.623 357.216 236.993 356.424 235.715 356.154L233.897 355.758C232.079 355.362 230.783 354.174 230.783 352.266C230.783 350.268 232.637 348.468 234.995 348.468C237.875 348.468 239.027 350.25 239.315 351.636ZM243.613 359.934H246.223C248.581 359.934 250.561 358.35 250.561 355.146C250.561 351.924 248.617 350.304 246.259 350.304H243.613V359.934ZM246.277 361.5H241.849V348.738H246.313C249.553 348.738 252.379 350.952 252.379 355.146C252.379 359.322 249.517 361.5 246.277 361.5ZM262.852 351.636L261.268 352.194C261.124 351.276 260.35 350.016 258.568 350.016C257.128 350.016 256.102 350.952 256.102 352.14C256.102 353.058 256.66 353.76 257.74 353.994L259.648 354.408C261.772 354.876 262.96 356.208 262.96 357.99C262.96 359.97 261.268 361.77 258.55 361.77C255.472 361.77 254.014 359.79 253.78 357.972L255.472 357.432C255.598 358.854 256.606 360.168 258.532 360.168C260.296 360.168 261.16 359.25 261.16 358.134C261.16 357.216 260.53 356.424 259.252 356.154L257.434 355.758C255.616 355.362 254.32 354.174 254.32 352.266C254.32 350.268 256.174 348.468 258.532 348.468C261.412 348.468 262.564 350.25 262.852 351.636Z" fill="white"/>
<path d="M188.818 398.5V389.484H185.906V388.49H192.948V389.484H190.036V398.5H188.818ZM197.306 398.5L193.904 388.49H195.108L198.09 397.324L201.072 388.49H202.22L198.762 398.5H197.306ZM203.905 398.5V388.49H205.123V397.506H209.701V398.5H203.905Z" fill="white" style="mix-blend-mode:overlay"/>
<path d="M188.818 398.5V389.484H185.906V388.49H192.948V389.484H190.036V398.5H188.818ZM197.306 398.5L193.904 388.49H195.108L198.09 397.324L201.072 388.49H202.22L198.762 398.5H197.306ZM203.905 398.5V388.49H205.123V397.506H209.701V398.5H203.905Z" fill="white" fill-opacity="0.4" style="mix-blend-mode:plus-lighter"/>
<path d="M190.524 427.5V417.468L187.244 420.092V418.796L190.46 416.06H191.916V427.5H190.524ZM199.574 427.628C197.462 427.628 196.198 426.524 195.894 424.684H197.238C197.494 425.804 198.134 426.492 199.606 426.492C201.43 426.492 202.502 424.988 202.534 421.948C201.99 422.876 200.886 423.468 199.574 423.468C197.35 423.468 195.814 421.884 195.814 419.724C195.814 417.436 197.35 415.9 199.766 415.9C202.47 415.9 203.878 417.724 203.878 421.02V421.74C203.878 425.532 202.31 427.628 199.574 427.628ZM199.782 422.38C201.318 422.38 202.406 421.388 202.406 419.9C202.406 418.028 201.302 416.988 199.766 416.988C198.262 416.988 197.238 418.044 197.238 419.66C197.238 421.308 198.23 422.38 199.782 422.38ZM209.168 427.628C207.056 427.628 205.792 426.524 205.488 424.684H206.832C207.088 425.804 207.728 426.492 209.2 426.492C211.024 426.492 212.096 424.988 212.128 421.948C211.584 422.876 210.48 423.468 209.168 423.468C206.944 423.468 205.408 421.884 205.408 419.724C205.408 417.436 206.944 415.9 209.36 415.9C212.064 415.9 213.472 417.724 213.472 421.02V421.74C213.472 425.532 211.904 427.628 209.168 427.628ZM209.376 422.38C210.912 422.38 212 421.388 212 419.9C212 418.028 210.896 416.988 209.36 416.988C207.856 416.988 206.832 418.044 206.832 419.66C206.832 421.308 207.824 422.38 209.376 422.38ZM216.681 427.58C216.121 427.58 215.657 427.132 215.657 426.556C215.657 425.98 216.121 425.532 216.681 425.532C217.241 425.532 217.705 425.98 217.705 426.556C217.705 427.132 217.241 427.58 216.681 427.58ZM223.894 427.644C222.022 427.644 219.942 426.524 219.942 424.252C219.942 422.716 220.886 421.724 222.102 421.292C221.014 420.876 220.374 420.012 220.374 418.892C220.374 417.036 222.134 415.916 223.894 415.916C225.67 415.916 227.398 417.068 227.398 418.86C227.398 420.012 226.694 420.812 225.638 421.276C226.966 421.756 227.83 422.748 227.83 424.22C227.83 426.508 225.83 427.644 223.894 427.644ZM223.942 420.796C225.158 420.796 225.99 420.092 225.99 418.876C225.99 417.772 225.078 417.004 223.894 417.004C222.71 417.004 221.782 417.724 221.782 418.908C221.782 420.108 222.774 420.796 223.942 420.796ZM223.894 426.508C225.302 426.508 226.406 425.692 226.406 424.172C226.406 422.668 225.286 421.9 223.926 421.9C222.566 421.9 221.366 422.684 221.366 424.204C221.366 425.708 222.566 426.508 223.894 426.508ZM229.344 427.5V427.18L233.888 422.396C234.928 421.292 235.536 420.252 235.536 419.084C235.536 417.804 234.784 417.036 233.488 417.036C232.16 417.036 231.296 417.788 231.072 419.58H229.776C229.952 417.34 231.312 415.916 233.488 415.916C235.6 415.916 236.944 417.164 236.944 419.132C236.944 420.54 236.048 421.916 234.64 423.292L231.488 426.364H237.008V427.5H229.344ZM239.706 427.5V416.06H241.642L245.178 424.972L248.602 416.06H250.522V427.5H249.13V417.868L245.338 427.5H244.906L240.986 417.868V427.5H239.706ZM261.339 427.644C258.283 427.644 257.179 425.964 256.971 424.012H258.315C258.491 425.372 259.035 426.524 261.339 426.524C262.811 426.524 263.947 425.66 263.947 424.364C263.947 423.068 263.355 422.524 261.179 422.172C258.779 421.804 257.355 421.052 257.355 419.02C257.355 417.26 258.875 415.916 261.035 415.916C263.323 415.916 264.747 417.036 264.971 419.068H263.723C263.451 417.628 262.619 417.036 261.035 417.036C259.467 417.036 258.651 417.82 258.651 418.892C258.651 420.012 259.067 420.588 261.403 420.94C263.947 421.34 265.291 422.108 265.291 424.268C265.291 426.188 263.611 427.644 261.339 427.644ZM267.674 427.5V416.06H269.066V421.564L274.042 416.06H275.594L270.506 421.612L275.85 427.5H274.17L269.066 421.916V427.5H267.674ZM280.286 427.5V422.508L276.462 416.06H278.03L281.022 421.372L283.902 416.06H285.294L281.678 422.524V427.5H280.286Z" fill="white"/>
<path d="M464.389 398.626C461.715 398.626 460.749 397.156 460.567 395.448H461.743C461.897 396.638 462.373 397.646 464.389 397.646C465.677 397.646 466.671 396.89 466.671 395.756C466.671 394.622 466.153 394.146 464.249 393.838C462.149 393.516 460.903 392.858 460.903 391.08C460.903 389.54 462.233 388.364 464.123 388.364C466.125 388.364 467.371 389.344 467.567 391.122H466.475C466.237 389.862 465.509 389.344 464.123 389.344C462.751 389.344 462.037 390.03 462.037 390.968C462.037 391.948 462.401 392.452 464.445 392.76C466.671 393.11 467.847 393.782 467.847 395.672C467.847 397.352 466.377 398.626 464.389 398.626ZM472.258 398.626C470.802 398.626 469.71 397.828 469.71 395.812V391.178H470.872V395.756C470.872 397.044 471.418 397.618 472.566 397.618C473.602 397.618 474.582 396.932 474.582 395.616V391.178H475.744V398.5H474.582V397.338C474.246 398.024 473.434 398.626 472.258 398.626ZM478.092 401.048V391.178H479.254V392.41C479.674 391.696 480.668 391.052 481.732 391.052C483.65 391.052 485.064 392.452 485.064 394.734V394.846C485.064 397.086 483.748 398.626 481.732 398.626C480.528 398.626 479.674 398.024 479.254 397.296V401.048H478.092ZM481.62 397.66C483.076 397.66 483.86 396.68 483.86 394.902V394.79C483.86 392.942 482.838 392.018 481.606 392.018C480.248 392.018 479.212 392.914 479.212 394.79V394.902C479.212 396.778 480.192 397.66 481.62 397.66ZM486.869 401.048V391.178H488.031V392.41C488.451 391.696 489.445 391.052 490.509 391.052C492.427 391.052 493.841 392.452 493.841 394.734V394.846C493.841 397.086 492.525 398.626 490.509 398.626C489.305 398.626 488.451 398.024 488.031 397.296V401.048H486.869ZM490.397 397.66C491.853 397.66 492.637 396.68 492.637 394.902V394.79C492.637 392.942 491.615 392.018 490.383 392.018C489.025 392.018 487.989 392.914 487.989 394.79V394.902C487.989 396.778 488.969 397.66 490.397 397.66ZM495.675 398.5V387.678H496.851V398.5H495.675ZM499.817 389.652C499.397 389.652 499.047 389.302 499.047 388.882C499.047 388.462 499.397 388.112 499.817 388.112C500.237 388.112 500.587 388.462 500.587 388.882C500.587 389.302 500.237 389.652 499.817 389.652ZM499.257 398.5V391.178H500.419V398.5H499.257ZM505.793 398.626C503.721 398.626 502.251 397.17 502.251 394.916V394.804C502.251 392.592 503.665 391.052 505.681 391.052C507.375 391.052 508.971 392.074 508.971 394.692V395.07H503.455C503.511 396.736 504.309 397.66 505.807 397.66C506.941 397.66 507.599 397.24 507.753 396.386H508.915C508.663 397.856 507.445 398.626 505.793 398.626ZM503.497 394.132H507.781C507.669 392.62 506.885 392.018 505.681 392.018C504.491 392.018 503.693 392.83 503.497 394.132ZM510.754 398.5V391.178H511.916V392.494C512.378 391.668 513.008 391.094 514.324 391.052V392.144C512.854 392.214 511.916 392.676 511.916 394.482V398.5H510.754ZM518.217 398.626C516.467 398.626 515.417 397.744 515.347 396.246H516.481C516.565 397.114 517.027 397.66 518.203 397.66C519.309 397.66 519.799 397.282 519.799 396.498C519.799 395.728 519.225 395.476 518.091 395.266C516.187 394.916 515.543 394.384 515.543 393.11C515.543 391.752 516.873 391.052 518.021 391.052C519.337 391.052 520.471 391.584 520.667 393.166H519.547C519.379 392.368 518.931 392.018 518.007 392.018C517.167 392.018 516.621 392.438 516.621 393.068C516.621 393.726 516.985 393.992 518.329 394.23C519.841 394.51 520.905 394.846 520.905 396.4C520.905 397.73 519.995 398.626 518.217 398.626Z" fill="white" style="mix-blend-mode:overlay"/>
<path d="M464.389 398.626C461.715 398.626 460.749 397.156 460.567 395.448H461.743C461.897 396.638 462.373 397.646 464.389 397.646C465.677 397.646 466.671 396.89 466.671 395.756C466.671 394.622 466.153 394.146 464.249 393.838C462.149 393.516 460.903 392.858 460.903 391.08C460.903 389.54 462.233 388.364 464.123 388.364C466.125 388.364 467.371 389.344 467.567 391.122H466.475C466.237 389.862 465.509 389.344 464.123 389.344C462.751 389.344 462.037 390.03 462.037 390.968C462.037 391.948 462.401 392.452 464.445 392.76C466.671 393.11 467.847 393.782 467.847 395.672C467.847 397.352 466.377 398.626 464.389 398.626ZM472.258 398.626C470.802 398.626 469.71 397.828 469.71 395.812V391.178H470.872V395.756C470.872 397.044 471.418 397.618 472.566 397.618C473.602 397.618 474.582 396.932 474.582 395.616V391.178H475.744V398.5H474.582V397.338C474.246 398.024 473.434 398.626 472.258 398.626ZM478.092 401.048V391.178H479.254V392.41C479.674 391.696 480.668 391.052 481.732 391.052C483.65 391.052 485.064 392.452 485.064 394.734V394.846C485.064 397.086 483.748 398.626 481.732 398.626C480.528 398.626 479.674 398.024 479.254 397.296V401.048H478.092ZM481.62 397.66C483.076 397.66 483.86 396.68 483.86 394.902V394.79C483.86 392.942 482.838 392.018 481.606 392.018C480.248 392.018 479.212 392.914 479.212 394.79V394.902C479.212 396.778 480.192 397.66 481.62 397.66ZM486.869 401.048V391.178H488.031V392.41C488.451 391.696 489.445 391.052 490.509 391.052C492.427 391.052 493.841 392.452 493.841 394.734V394.846C493.841 397.086 492.525 398.626 490.509 398.626C489.305 398.626 488.451 398.024 488.031 397.296V401.048H486.869ZM490.397 397.66C491.853 397.66 492.637 396.68 492.637 394.902V394.79C492.637 392.942 491.615 392.018 490.383 392.018C489.025 392.018 487.989 392.914 487.989 394.79V394.902C487.989 396.778 488.969 397.66 490.397 397.66ZM495.675 398.5V387.678H496.851V398.5H495.675ZM499.817 389.652C499.397 389.652 499.047 389.302 499.047 388.882C499.047 388.462 499.397 388.112 499.817 388.112C500.237 388.112 500.587 388.462 500.587 388.882C500.587 389.302 500.237 389.652 499.817 389.652ZM499.257 398.5V391.178H500.419V398.5H499.257ZM505.793 398.626C503.721 398.626 502.251 397.17 502.251 394.916V394.804C502.251 392.592 503.665 391.052 505.681 391.052C507.375 391.052 508.971 392.074 508.971 394.692V395.07H503.455C503.511 396.736 504.309 397.66 505.807 397.66C506.941 397.66 507.599 397.24 507.753 396.386H508.915C508.663 397.856 507.445 398.626 505.793 398.626ZM503.497 394.132H507.781C507.669 392.62 506.885 392.018 505.681 392.018C504.491 392.018 503.693 392.83 503.497 394.132ZM510.754 398.5V391.178H511.916V392.494C512.378 391.668 513.008 391.094 514.324 391.052V392.144C512.854 392.214 511.916 392.676 511.916 394.482V398.5H510.754ZM518.217 398.626C516.467 398.626 515.417 397.744 515.347 396.246H516.481C516.565 397.114 517.027 397.66 518.203 397.66C519.309 397.66 519.799 397.282 519.799 396.498C519.799 395.728 519.225 395.476 518.091 395.266C516.187 394.916 515.543 394.384 515.543 393.11C515.543 391.752 516.873 391.052 518.021 391.052C519.337 391.052 520.471 391.584 520.667 393.166H519.547C519.379 392.368 518.931 392.018 518.007 392.018C517.167 392.018 516.621 392.438 516.621 393.068C516.621 393.726 516.985 393.992 518.329 394.23C519.841 394.51 520.905 394.846 520.905 396.4C520.905 397.73 519.995 398.626 518.217 398.626Z" fill="white" fill-opacity="0.4" style="mix-blend-mode:plus-lighter"/>
<path d="M504.969 427.5L509.177 417.18H503.433V416.06H510.969V416.252L506.393 427.5H504.969ZM516.722 427.644C514.85 427.644 512.77 426.524 512.77 424.252C512.77 422.716 513.714 421.724 514.93 421.292C513.842 420.876 513.202 420.012 513.202 418.892C513.202 417.036 514.962 415.916 516.722 415.916C518.498 415.916 520.226 417.068 520.226 418.86C520.226 420.012 519.522 420.812 518.466 421.276C519.794 421.756 520.658 422.748 520.658 424.22C520.658 426.508 518.658 427.644 516.722 427.644ZM516.77 420.796C517.986 420.796 518.818 420.092 518.818 418.876C518.818 417.772 517.906 417.004 516.722 417.004C515.538 417.004 514.61 417.724 514.61 418.908C514.61 420.108 515.602 420.796 516.77 420.796ZM516.722 426.508C518.13 426.508 519.234 425.692 519.234 424.172C519.234 422.668 518.114 421.9 516.754 421.9C515.394 421.9 514.194 422.684 514.194 424.204C514.194 425.708 515.394 426.508 516.722 426.508Z" fill="white"/>
<path fill-rule="evenodd" clip-rule="evenodd" d="M505.095 354.238C504.705 353.847 504.705 353.214 505.095 352.824L510.5 347.419L515.905 352.824C516.295 353.214 516.295 353.847 515.905 354.238C515.514 354.628 514.881 354.628 514.49 354.238L510.5 350.247L506.51 354.238C506.119 354.628 505.486 354.628 505.095 354.238Z" fill="white" style="mix-blend-mode:overlay"/>
<path fill-rule="evenodd" clip-rule="evenodd" d="M505.095 354.238C504.705 353.847 504.705 353.214 505.095 352.824L510.5 347.419L515.905 352.824C516.295 353.214 516.295 353.847 515.905 354.238C515.514 354.628 514.881 354.628 514.49 354.238L510.5 350.247L506.51 354.238C506.119 354.628 505.486 354.628 505.095 354.238Z" fill="white" fill-opacity="0.4" style="mix-blend-mode:plus-lighter"/>
</g>
<defs>
<linearGradient id="paint0_linear_1696_99922" x1="234.757" y1="57.5" x2="336.269" y2="838.117" gradientUnits="userSpaceOnUse">
<stop stop-color="#13142C"/>
<stop offset="1" stop-color="#1E1350"/>
</linearGradient>
<radialGradient id="paint1_radial_1696_99922" cx="0" cy="0" r="1" gradientUnits="userSpaceOnUse" gradientTransform="translate(353.5 325.5) rotate(90) scale(153.75 437.955)">
<stop stop-color="white" stop-opacity="0"/>
<stop offset="1" stop-color="white"/>
</radialGradient>
<radialGradient id="paint2_radial_1696_99922" cx="0" cy="0" r="1" gradientUnits="userSpaceOnUse" gradientTransform="translate(197.5 371.5) rotate(-90) scale(39 46.8)">
<stop stop-color="#FFD232"/>
<stop offset="1" stop-color="#FF6D6D"/>
</radialGradient>
<clipPath id="clip0_1696_99922">
<rect width="565" height="726" fill="white" transform="translate(0.5 -14.5)"/>
</clipPath>
</defs>
</svg>
